<svg fill="#FFFFFF" height="50" viewBox="0 0 512 512" width="50" xmlns="http://www.w3.org/2000/svg">
    <path d="m481 150h-90v332h-30v-242h-90v242h-30v-182h-90v182h-30v-242h-90v242h-31v30h512v-30h-31zm-60 30h30v302h-30zm-120 90h30v212h-30zm-120 60h30v152h-30zm-120-60h30v212h-30zm0 0"/>
    <path d="m76 90c-24.8125 0-45 20.1875-45 45s20.1875 45 45 45c12.109375 0 23.109375-4.816406 31.207031-12.625l44.148438 22.074219c-.226563 1.820312-.355469 3.667969-.355469 5.550781 0 24.8125 20.1875 45 45 45s45-20.1875 45-45c0-1.882812-.128906-3.730469-.355469-5.550781l44.148438-22.074219c8.097656 7.808594 19.097656 12.625 31.207031 12.625 24.8125 0 45-20.1875 45-45 0-4.6875-.722656-9.207031-2.058594-13.457031l52.132813-39.097657c7.140625 4.769532 15.710937 7.554688 24.925781 7.554688 24.8125 0 45-20.1875 45-45s-20.1875-45-45-45-45 20.1875-45 45c0 4.6875.722656 9.207031 2.058594 13.457031l-52.132813 39.097657c-7.140625-4.769532-15.710937-7.554688-24.925781-7.554688-24.8125 0-45 20.1875-45 45 0 1.882812.128906 3.730469.355469 5.550781l-44.148438 22.074219c-8.097656-7.808594-19.097656-12.625-31.207031-12.625s-23.109375 4.816406-31.207031 12.625l-44.148438-22.074219c.226563-1.820312.355469-3.667969.355469-5.550781 0-24.8125-20.1875-45-45-45zm0 60c-8.269531 0-15-6.730469-15-15s6.730469-15 15-15 15 6.730469 15 15-6.730469 15-15 15zm360-120c8.269531 0 15 6.730469 15 15s-6.730469 15-15 15-15-6.730469-15-15 6.730469-15 15-15zm-120 90c8.269531 0 15 6.730469 15 15s-6.730469 15-15 15-15-6.730469-15-15 6.730469-15 15-15zm-120 60c8.269531 0 15 6.730469 15 15s-6.730469 15-15 15-15-6.730469-15-15 6.730469-15 15-15zm0 0"/>
</svg>