<svg fill="#0e82e2" height="80" viewBox="0 0 512 512" width="80" xmlns="http://www.w3.org/2000/svg"><path d="m417.96875 123.5625c-12.621094-70.695312-73.75-123.5625-146.96875-123.5625-48.058594 0-92.375 22.785156-120.652344 61.496094-45.375-9.375-90.347656 25.957031-90.347656 73.503906 0 .464844.007812.925781.019531 1.382812-36.785156 21.371094-60.019531 61.324219-60.019531 104.617188 0 66.203125 54.539062 121 121 121h120v30h-30v30h-60v30h-120v30h120v30h210v-30h120v-30h-120v-30h-60v-30h-30v-30h120c66.203125 0 121-54.539062 121-121 0-56.53125-40.257812-104.992188-94.03125-117.4375zm-86.96875 328.4375v30h-150v-30h60v-30h30v30zm60-120h-270c-49.328125 0-91-41.671875-91-91 0-35.339844 20.535156-67.699219 52.316406-82.445312l10.371094-4.8125-1.890625-11.273438c-5.691406-33.929688 28.152344-61.523438 60.695313-49.507812l11.460937 4.226562 6.464844-10.367188c22.183593-35.578124 60.15625-56.820312 101.582031-56.820312 55.332031 0 102.226562 37.652344 115.554688 90.089844-30.386719 1.097656-58.792969 13.445312-80.40625 35.058594l21.210937 21.210937c17-16.996094 39.601563-26.359375 63.640625-26.359375v-.285156c.101562.050781 91 5.621094 91 91.285156 0 49.328125-41.671875 91-91 91zm0 0"/></svg>