<svg fill="#0e82e2" height="80" viewBox="0 -30 512 511" width="80" xmlns="http://www.w3.org/2000/svg"><path d="m60.035156 60.546875h30.023438v30h-30.023438zm0 0"/><path d="m120.085938 60.546875h30.023437v30h-30.023437zm0 0"/><path d="m180.132812 60.546875h30.023438v30h-30.023438zm0 0"/><path d="m0 .5v451.953125h512v-451.953125zm482 30v90.097656h-452v-90.097656zm-452 391.953125v-271.855469h452v271.855469zm0 0"/><path d="m200.148438 271.523438h251.816406v30h-251.816406zm0 0"/><path d="m200.148438 211.476562h251.816406v30h-251.816406zm0 0"/><path d="m200.148438 331.570312h251.816406v30h-251.816406zm0 0"/><path d="m130.078125 271.523438h-60.035156v30h30.035156v30.046874h-30.035156v30h90.074219v-30h-30.039063zm0 0"/><path d="m100.066406 211.476562h30.023438v30h-30.023438zm0 0"/></svg>