<svg
        fill="  #0e82e2"
        height="60"
        width="60"
        viewBox="0 0 512 512" xmlns="http://www.w3.org/2000/svg">
    <path d="m481.976562 421.953125v-321.875h-80.0625v-100.078125h-291.824218v100.078125h-80.066406v321.875h-30.023438v90.046875h512v-90.046875zm-272.222656-138.75 46.246094 46.242187 46.246094-46.242187h99.664062v-93.074219h50.066406v171.773438h-391.953124v-171.773438h50.0625v93.074219zm242.222656-153.125v30.050781h-50.0625v-30.050781zm-311.886718-100.078125h231.820312v223.203125h-82.089844l-33.820312 33.816406-33.820312-33.816406h-82.089844zm-30 100.078125v30.050781h-50.066406v-30.050781zm-50.066406 261.824219h391.953124v30.050781h-391.953124zm421.976562 90.097656h-452v-30.046875h452zm0 0"/>
    <path d="m301.035156 190.152344h-30.035156v-70.054688h-60.035156v30h30.035156v40.054688h-30.035156v30h90.070312zm0 0"/>
    <path d="m240.988281 60.046875h30.023438v30h-30.023438zm0 0"/>
</svg>