<svg fill="#0e82e2" height="80" viewBox="0 0 512 512" width="80" xmlns="http://www.w3.org/2000/svg"><path d="m512 170v-170h-170v70h-81.785156l27.390625-27.394531-21.210938-21.210938-63.609375 63.605469 63.609375 63.605469 21.210938-21.210938-27.390625-27.394531h81.785156v48.785156l-86 86-86-86v-148.785156h-170v170h148.785156l86 86-86 86h-148.785156v170h170v-70h81.785156l-27.390625 27.394531 21.210938 21.210938 63.609375-63.605469-63.609375-63.605469-21.210938 21.210938 27.390625 27.394531h-81.785156v-48.785156l86-86 86 86v148.785156h170v-170h-70v-81.785156l27.394531 27.390625 21.210938-21.210938-63.605469-63.609375-63.605469 63.609375 21.210938 21.210938 27.394531-27.390625v81.785156h-48.785156l-86-86 86-86zm-140-70h55v-30h-55v-40h110v110h-110zm-232 40h-110v-110h110zm0 272h-55v30h55v40h-110v-110h110zm232-40h40v55h30v-55h40v110h-110zm0 0"/><path d="m100 85c0 8.285156-6.714844 15-15 15s-15-6.714844-15-15 6.714844-15 15-15 15 6.714844 15 15zm0 0"/></svg>