<svg fill="#0e82e2" height="80" viewBox="0 0 512 512" width="80" xmlns="http://www.w3.org/2000/svg">
    <path d="m0 0v392h161v90h-25v30h240v-30h-24v-90h160v-392zm322 482h-131v-90h131zm160-120h-452v-30h452zm-392-212h199v152h-199zm332-30h-332v-30h332zm0 182h-103v-152h103zm30 0v-242h-392v242h-30v-272h452v272zm0 0"/>
    <path d="m196.039062 226.273438-31.453124-28.273438-44.554688 47.769531 21.9375 20.460938 24.464844-26.230469 30.835937 27.726562 61.40625-62.1875-21.347656-21.078124zm0 0"/>
    <path d="m347 181h45v30h-45zm0 0"/>
    <path d="m347.632812 240.5h45v30h-45zm0 0"/>
</svg>