<svg fill="#aebcc7" height="50" viewBox="0 0 512 512" width="50" xmlns="http://www.w3.org/2000/svg"><path d="m497 422v-298h-140.785156l-59.613282-59.609375c2.816407-5.875 4.398438-12.453125 4.398438-19.390625 0-24.8125-20.1875-45-45-45s-45 20.1875-45 45c0 6.9375 1.582031 13.515625 4.398438 19.390625l-59.613282 59.609375h-140.785156v298h-15v30h296v60h171v-60h45v-30zm-241-392c8.269531 0 15 6.730469 15 15s-6.730469 15-15 15-15-6.730469-15-15 6.730469-15 15-15zm-19.390625 55.601562c5.875 2.816407 12.453125 4.398438 19.390625 4.398438s13.515625-1.582031 19.390625-4.398438l38.394531 38.398438h-115.570312zm200.390625 396.398438h-111v-30h111zm-392-60v-268h422v268zm0 0"/><path d="m241 194h30v128h-30zm0 0"/><path d="m140 352h232v30h-232zm0 0"/><path d="m181 234h30v88h-30zm0 0"/><path d="m301 264h30v58h-30zm0 0"/></svg>