<svg fill="#0e82e2" height="80" viewBox="0 0 512 512" width="80" xmlns="http://www.w3.org/2000/svg"><path d="m512 257.777344c0-19.988282-7.320312-39.125-20.617188-53.890625-8.699218-9.664063-19.464843-16.929688-31.355468-21.320313.835937-2.789062 1.511718-5.644531 2.046875-8.554687.003906-.011719.003906-.027344.007812-.039063.917969-4.800781 1.34375-9.714844 1.34375-14.605468 0-38.964844-27.65625-71.519532-64.148437-78.628907.003906-.222656.003906-.441406.003906-.664062 0-44.152344-35.5-80.074219-79.140625-80.074219-26.367187 0-49.75 13.128906-64.140625 33.25-14.390625-20.121094-37.773438-33.25-64.140625-33.25-43.640625 0-79.140625 35.921875-79.140625 80.074219v.664062c-36.488281 7.109375-64.144531 39.664063-64.144531 78.632813 0 4.894531.480469 9.78125 1.34375 14.597656.003906.015625.003906.027344.007812.046875.53125 2.90625 1.210938 5.761719 2.046875 8.550781-11.894531 4.394532-22.660156 11.65625-31.359375 21.320313-13.292969 14.765625-20.613281 33.902343-20.613281 53.890625 0 33.785156 21.003906 63.289062 51.105469 74.839844-1.671875 6.527343-2.527344 13.265624-2.527344 20.011718 0 38.96875 27.652344 71.523438 64.144531 78.632813-.003906.222656-.003906.441406-.003906.664062 0 44.152344 35.503906 80.074219 79.140625 80.074219 26.371094 0 49.753906-13.128906 64.144531-33.25 14.386719 20.121094 37.769532 33.25 64.136719 33.25 43.640625 0 79.140625-35.921875 79.140625-80.074219 0-.222656 0-.441406 0-.664062 36.488281-7.109375 64.144531-39.664063 64.144531-78.632813 0-6.746094-.859375-13.484375-2.527343-20.011718 30.097656-11.550782 51.101562-41.054688 51.101562-74.839844zm-320.140625 224.222656c-27.097656 0-49.140625-22.464844-49.140625-50.074219 0-3.59375.417969-7.316406 1.25-11.0625l.390625-1.765625c5.574219-21.414062 24.75-37.246094 47.496094-37.246094v-30c-33.113281 0-61.527344 20.695313-73.3125 49.964844-22.726563-4.390625-39.96875-24.769531-39.96875-49.1875 0-8.246094 1.929687-16.128906 5.730469-23.425781l9.933593-19.0625-21.320312-2.746094c-24.46875-3.148437-42.917969-24.480469-42.917969-49.617187 0-23.003906 15.019531-42.449219 36.070312-48.273438 14.519532 18.238282 36.753907 29.941406 61.648438 29.941406v-30c-16.960938 0-31.945312-8.804687-40.777344-22.160156 0 0-1.167968-1.957031-1.167968-1.957031-4.617188-7.71875-7.195313-16.863281-7.195313-25.960937 0-27.53125 21.914063-49.945313 48.90625-50.070313h.042969c.46875.035156.9375.0625 1.414062.074219l19.171875.488281-4.144531-18.726563c-.828125-3.746093-1.25-7.464843-1.25-11.0625 0-27.609374 22.042969-50.074218 49.140625-50.074218s49.140625 22.46875 49.140625 50.078125v170.285156c0 14.996094-11.929688 27.199219-26.589844 27.199219-14.664062 0-26.59375-12.203125-26.59375-27.199219h-30c0 31.539063 25.386719 57.199219 56.59375 57.199219 9.605469 0 18.65625-2.441406 26.589844-6.726563v131.09375c0 27.609375-22.046875 50.074219-49.140625 50.074219zm247.21875-174.605469-21.316406 2.746094 9.933593 19.0625c3.800782 7.296875 5.730469 15.179687 5.730469 23.425781 0 24.417969-17.242187 44.792969-39.972656 49.1875-11.785156-29.269531-40.195313-49.964844-73.3125-49.964844v30c22.746094 0 41.925781 15.832032 47.5 37.246094l.390625 1.765625c.832031 3.746094 1.25 7.46875 1.25 11.0625 0 27.609375-22.042969 50.074219-49.140625 50.074219-27.09375 0-49.140625-22.464844-49.140625-50.074219v-230.980469c0-14.996093 11.929688-27.195312 26.589844-27.195312 14.664062 0 26.59375 12.199219 26.59375 27.195312h30c0-31.535156-25.386719-57.195312-56.59375-57.195312-9.605469 0-18.65625 2.441406-26.589844 6.726562v-70.402343c0-27.609375 22.046875-50.074219 49.140625-50.074219 27.097656 0 49.140625 22.464844 49.140625 50.074219 0 3.59375-.417969 7.316406-1.25 11.0625l-4.144531 18.722656 19.171875-.484375c.476562-.011719.945312-.042969 1.417968-.074219l.042969-.003906c26.988281.128906 48.90625 22.542969 48.90625 50.074219 0 9.105468-2.527343 18.148437-7.195312 25.957031l-1.167969 1.957031c-8.835938 13.359375-23.816406 22.160156-40.777344 22.160156v30c24.894532 0 47.125-11.699218 61.644532-29.9375 21.050781 5.820313 36.070312 25.269532 36.070312 48.269532 0 25.136718-18.449219 46.46875-42.921875 49.617187zm0 0"/></svg>