<svg fill="#0e82e2" height="80" viewBox="0 -33 512 512" width="80" xmlns="http://www.w3.org/2000/svg"><path d="m249.132812 118.953125 18.757813-18.761719-21.210937-21.210937-18.761719 18.757812c-8.046875-5.363281-17.171875-9.234375-26.972657-11.207031v-26.496094h-30v26.496094c-9.804687 1.972656-18.925781 5.84375-26.976562 11.207031l-18.757812-18.757812-21.214844 21.210937 18.761718 18.761719c-5.363281 8.046875-9.238281 17.171875-11.210937 26.976563h-26.496094v30h26.496094c1.976563 9.800781 5.847656 18.925781 11.210937 26.972656l-18.761718 18.761718 21.214844 21.210938 18.757812-18.757812c8.050781 5.363281 17.171875 9.234374 26.976562 11.207031v26.496093h30v-26.496093c9.804688-1.972657 18.925782-5.84375 26.976563-11.207031l18.757813 18.757812 21.214843-21.210938-18.761719-18.761718c5.363282-8.046875 9.234376-17.171875 11.210938-26.972656h26.496094v-30h-26.5c-1.972656-9.804688-5.84375-18.925782-11.207032-26.976563zm-63.1875 87.867187c-25.304687 0-45.894531-20.585937-45.894531-45.890624 0-25.308594 20.589844-45.894532 45.894531-45.894532 25.304688 0 45.890626 20.585938 45.890626 45.894532 0 25.304687-20.585938 45.890624-45.890626 45.890624zm0 0"/><path d="m371.886719 148.742188v-148.742188h-371.886719v321.855469h58.828125l46.242187 46.246093 46.246094-46.246093h78.867188v77.0625h130.5l46.246094 46.242187 46.242187-46.242187h58.828125v-250.175781zm-232.996094 143.113281-33.816406 33.820312-33.820313-33.820312h-41.253906v-261.855469h311.886719v261.855469zm343.109375 77.0625h-41.253906l-33.816406 33.816406-33.820313-33.816406h-112.925781v-47.0625h111.703125v-143.113281h110.113281zm0 0"/></svg>