<svg
        fill="  #0e82e2"
        height="60"
        width="60"
        viewBox="0 -32 480.00619 480" xmlns="http://www.w3.org/2000/svg"><path d="m480.007812 208.003906c0-2.453125-1.125-4.769531-3.050781-6.289062-6.117187-4.800782-146.199219-114.359375-228.949219-121.351563v-40.359375c0-4.417968-3.582031-8-8-8-4.417968 0-8 3.582032-8 8v40.359375c-82.753906 6.992188-222.832031 116.542969-228.953124 121.351563-1.929688 1.515625-3.054688 3.835937-3.054688 6.289062s1.125 4.769532 3.054688 6.289063c6.121093 4.796875 146.199218 114.398437 228.953124 121.351562v40.359375c0 4.417969 3.582032 8 8 8 4.417969 0 8-3.582031 8-8v-40.359375c82.75-6.992187 222.832032-116.546875 228.949219-121.351562 1.925781-1.519531 3.050781-3.835938 3.050781-6.289063zm-458.832031 0c38.15625-28.878906 78.320313-55.011718 120.183594-78.199218-17.363281 19.421874-27.589844 44.183593-28.992187 70.199218h-40.359376c-4.417968 0-8 3.582032-8 8 0 4.417969 3.582032 8 8 8h40.359376c1.402343 26.015625 11.628906 50.773438 28.992187 70.199219-41.863281-23.1875-82.027344-49.320313-120.183594-78.199219zm262.902344 102.933594c-11.640625 4.289062-23.75 7.179688-36.070313 8.609375v-39.542969c0-4.417968-3.582031-8-8-8-4.417968 0-8 3.582032-8 8v39.542969c-12.324218-1.429687-24.433593-4.320313-36.074218-8.609375-38.496094-16.539062-64.574219-53.144531-67.625-94.933594h39.699218c4.417969 0 8-3.582031 8-8 0-4.417968-3.582031-8-8-8h-39.699218c3.050781-41.789062 29.128906-78.398437 67.625-94.9375 11.640625-4.285156 23.75-7.175781 36.074218-8.605468v39.542968c0 4.417969 3.582032 8 8 8 4.417969 0 8-3.582031 8-8v-39.542968c12.320313 1.429687 24.429688 4.320312 36.070313 8.605468 38.496094 16.539063 64.574219 53.148438 67.625 94.9375h-39.695313c-4.417968 0-8 3.582032-8 8 0 4.417969 3.582032 8 8 8h39.695313c-3.050781 41.789063-29.128906 78.394532-67.625 94.933594zm54.574219-24.734375c17.363281-19.425781 27.589844-44.183594 28.992187-70.199219h40.363281c4.417969 0 8-3.582031 8-8 0-4.417968-3.582031-8-8-8h-40.363281c-1.402343-26.015625-11.628906-50.777344-28.992187-70.199218 41.863281 23.1875 82.027344 49.320312 120.1875 78.199218-38.160156 28.878906-78.324219 55.011719-120.1875 78.199219zm0 0"/><path d="m240.007812 168.003906c-22.09375 0-40 17.90625-40 40 0 22.089844 17.90625 40 40 40 22.089844 0 40-17.910156 40-40-.027343-22.082031-17.921874-39.972656-40-40zm0 64c-13.257812 0-24-10.746094-24-24s10.742188-24 24-24c13.253907 0 24 10.746094 24 24s-10.746093 24-24 24zm0 0"/><path d="m472.007812 112.003906c-4.417968 0-8-3.582031-8-8v-88h-88c-4.417968 0-8-3.582031-8-8 0-4.417968 3.582032-7.99999975 8-7.99999975h96c4.417969 0 8 3.58203175 8 7.99999975v96c0 4.417969-3.582031 8-8 8zm0 0"/><path d="m8.007812 112.003906c-4.417968 0-7.9999995-3.582031-7.9999995-8v-96c0-4.417968 3.5820315-7.99999975 7.9999995-7.99999975h96c4.417969 0 8 3.58203175 8 7.99999975 0 4.417969-3.582031 8-8 8h-88v88c0 4.417969-3.582031 8-8 8zm0 0"/><path d="m472.007812 416.003906h-96c-4.417968 0-8-3.582031-8-8 0-4.417968 3.582032-8 8-8h88v-88c0-4.417968 3.582032-8 8-8 4.417969 0 8 3.582032 8 8v96c0 4.417969-3.582031 8-8 8zm0 0"/><path d="m104.007812 416.003906h-96c-4.417968 0-7.9999995-3.582031-7.9999995-8v-96c0-4.417968 3.5820315-8 7.9999995-8 4.417969 0 8 3.582032 8 8v88h88c4.417969 0 8 3.582032 8 8 0 4.417969-3.582031 8-8 8zm0 0"/></svg>