<svg
        fill="  #0e82e2"
        height="60"
        width="60"
        viewBox="0 -17 512.00003 512" xmlns="http://www.w3.org/2000/svg"><path d="m59.734375 59.734375h17.066406c4.710938 0 8.53125-3.820313 8.53125-8.535156 0-4.710938-3.820312-8.53125-8.53125-8.53125h-17.066406c-4.714844 0-8.535156 3.820312-8.535156 8.53125 0 4.714843 3.820312 8.535156 8.535156 8.535156zm0 0"/><path d="m110.933594 59.734375h17.066406c4.710938 0 8.535156-3.820313 8.535156-8.535156 0-4.710938-3.824218-8.53125-8.535156-8.53125h-17.066406c-4.714844 0-8.535156 3.820312-8.535156 8.53125 0 4.714843 3.820312 8.535156 8.535156 8.535156zm0 0"/><path d="m162.132812 59.734375h34.132813c4.714844 0 8.535156-3.820313 8.535156-8.535156 0-4.710938-3.820312-8.53125-8.535156-8.53125h-34.132813c-4.710937 0-8.53125 3.820312-8.53125 8.53125 0 4.714843 3.820313 8.535156 8.53125 8.535156zm0 0"/><path d="m230.398438 59.734375h187.734374c4.714844 0 8.535157-3.820313 8.535157-8.535156 0-4.710938-3.820313-8.53125-8.535157-8.53125h-187.734374c-4.710938 0-8.53125 3.820312-8.53125 8.53125 0 4.714843 3.820312 8.535156 8.53125 8.535156zm0 0"/><path d="m486.398438 170.667969h-17.066407v-128c-.027343-23.554688-19.113281-42.6406252-42.664062-42.667969h-384c-23.554688.0273438-42.6406252 19.113281-42.667969 42.667969v315.730469c.0273438 23.554687 19.113281 42.640624 42.667969 42.667968h162.132812v51.199219c0 14.140625 11.460938 25.601563 25.597657 25.601563h256c14.140624 0 25.601562-11.460938 25.601562-25.601563v-256c0-14.136719-11.460938-25.597656-25.601562-25.597656zm-443.730469 213.332031c-14.140625 0-25.601563-11.460938-25.601563-25.601562v-315.730469c0-14.140625 11.460938-25.601563 25.601563-25.601563h384c14.136719 0 25.597656 11.460938 25.597656 25.601563v128h-25.597656v-68.269531c0-9.425782-7.640625-17.066407-17.066407-17.066407h-349.867187c-9.207031-.195312-16.839844 7.09375-17.066406 16.300781v240.46875c.226562 9.207032 7.859375 16.492188 17.066406 16.296876h145.066406v25.601562zm187.730469-213.332031c-10.808594.042969-20.425782 6.875-24.027344 17.066406h-69.835938v-34.132813h273.066406v17.066407zm-170.664063 170.597656v-34.066406h59.730469v34.132812zm349.867187-238.867187v34.136718h-273.066406v-34.136718zm-290.136718 34.136718h-59.730469v-34.136718h59.730469zm-59.730469 119.464844h59.730469v34.132812h-59.730469zm76.800781 0h68.265625v34.132812h-68.265625zm68.265625-17.066406h-68.265625v-34.132813h68.265625zm-85.335937 0h-59.730469v-34.132813h59.730469zm-59.730469-51.199219v-34.132813h59.730469v34.132813zm76.800781 119.464844h68.265625v34.132812h-68.265625zm358.398438 145.066406c0 4.714844-3.820313 8.535156-8.535156 8.535156h-256c-4.710938 0-8.53125-3.820312-8.53125-8.535156v-256c0-4.710937 3.820312-8.53125 8.53125-8.53125h256c4.714843 0 8.535156 3.820313 8.535156 8.53125zm0 0"/><path d="m349.867188 307.199219h-32.425782l6.824219-68.265625c0-9.425782 7.640625-17.066406 17.066406-17.066406s17.066407 7.640624 17.066407 17.066406c0 4.710937 3.820312 8.53125 8.535156 8.53125 4.710937 0 8.53125-3.820313 8.53125-8.53125-.375-18.410156-15.285156-33.199219-33.699219-33.429688-18.410156-.230468-33.683594 14.183594-34.523437 32.574219l-6.867188 69.121094h-27.308594c-4.710937 0-8.53125 3.820312-8.53125 8.535156 0 4.710937 3.820313 8.53125 8.53125 8.53125h25.601563l-8.535157 85.335937c0 9.425782-7.640624 17.066407-17.066406 17.066407-9.425781 0-17.066406-7.640625-17.066406-17.066407 0-4.714843-3.820312-8.535156-8.535156-8.535156-4.710938 0-8.53125 3.820313-8.53125 8.535156.378906 18.40625 15.289062 33.195313 33.699218 33.425782 18.410157.230468 33.6875-14.179688 34.523438-32.574219l8.578125-86.1875h34.132813c4.710937 0 8.53125-3.820313 8.53125-8.53125 0-4.714844-3.820313-8.535156-8.53125-8.535156zm0 0"/><path d="m449.765625 343.832031c-3.332031-3.328125-8.734375-3.328125-12.066406 0l-32.367188 32.367188-32.367187-32.367188c-3.347656-3.230469-8.667969-3.1875-11.960938.105469-3.292968 3.292969-3.335937 8.613281-.105468 11.960938l32.367187 32.367187-32.367187 32.367187c-2.214844 2.144532-3.105469 5.316407-2.324219 8.300782.78125 2.980468 3.109375 5.3125 6.09375 6.09375s6.15625-.109375 8.296875-2.328125l32.367187-32.367188 32.367188 32.367188c3.347656 3.234375 8.671875 3.1875 11.964843-.101563 3.289063-3.292968 3.335938-8.617187.101563-11.964844l-32.367187-32.367187 32.367187-32.367187c3.332031-3.332032 3.332031-8.734376 0-12.066407zm0 0"/></svg>