<svg fill="  #0e82e2"
     height="60"
     width="60" viewBox="0 0 496 496" xmlns="http://www.w3.org/2000/svg"><path d="m480 416v-280c0-22.054688-17.945312-40-40-40h-104v-72c0-13.230469-10.769531-24-24-24h-208c-13.230469 0-24 10.769531-24 24v72h-24c-22.054688 0-40 17.945312-40 40v280h-16v40c0 22.054688 17.945312 40 40 40h416c22.054688 0 40-17.945312 40-40v-40zm-40-304c13.230469 0 24 10.769531 24 24v280h-16v-272c0-8.824219-7.175781-16-16-16h-96v-16zm-264 320h144v8c0 4.414062-3.59375 8-8 8h-128c-4.40625 0-8-3.585938-8-8zm-112-16v-272h16v8c0 13.230469 10.769531 24 24 24h57.457031c-.90625 2.542969-1.457031 5.214844-1.457031 8v128c0 13.230469 10.769531 24 24 24h72v46.441406l74.296875-46.441406h61.703125c13.230469 0 24-10.769531 24-24v-128c0-13.230469-10.769531-24-24-24h-57.472656c.898437-2.511719 1.472656-5.183594 1.472656-8v-8h96v272zm328-240c4.40625 0 8 3.585938 8 8v128c0 4.414062-3.59375 8-8 8h-66.296875l-53.703125 33.558594v-33.558594h-88c-4.40625 0-8-3.585938-8-8v-128c0-.488281.191406-.929688.273438-1.390625l63.726562 39.832031v-46.441406zm-296-152c0-4.414062 3.59375-8 8-8h208c4.40625 0 8 3.585938 8 8v128c0 4.414062-3.59375 8-8 8h-88v33.558594l-53.703125-33.558594h-66.296875c-4.40625 0-8-3.585938-8-8zm-64 112c0-13.230469 10.769531-24 24-24h24v16h-16c-8.824219 0-16 7.175781-16 16v272h-16zm448 320c0 13.230469-10.769531 24-24 24h-416c-13.230469 0-24-10.769531-24-24v-24h144v8c0 13.230469 10.769531 24 24 24h128c13.230469 0 24-10.769531 24-24v-8h144zm0 0"/><path d="m48 448h16v16h-16zm0 0"/><path d="m80 448h16v16h-16zm0 0"/><path d="m112 448h16v16h-16zm0 0"/><path d="m112 32h192v16h-192zm0 0"/><path d="m112 64h192v16h-192zm0 0"/><path d="m288 96h16v16h-16zm0 0"/><path d="m112 96h160v16h-160zm0 0"/><path d="m200 128h16v16h-16zm0 0"/><path d="m248 128h16v16h-16zm0 0"/><path d="m152 128h16v16h-16zm0 0"/><path d="m256 192h128v16h-128zm0 0"/><path d="m256 224h128v16h-128zm0 0"/><path d="m368 256h16v16h-16zm0 0"/><path d="m192 256h160v16h-160zm0 0"/><path d="m280 288h16v16h-16zm0 0"/><path d="m328 288h16v16h-16zm0 0"/><path d="m232 288h16v16h-16zm0 0"/></svg>