<?xml version="1.0" encoding="utf-8"?>
<!-- Generator: Adobe Illustrator 21.1.0, SVG Export Plug-In . SVG Version: 6.00 Build 0)  -->
<svg
		width="40"
		height="40"
		version="1.1" id="Capa_1" xmlns="http://www.w3.org/2000/svg" xmlns:xlink="http://www.w3.org/1999/xlink" x="0px" y="0px"
	 viewBox="0 0 510 510" style="enable-background:new 0 0 510 510;" xml:space="preserve">
<style type="text/css">
	.st0{fill:#A3A3A3;}
	.st1{fill:#0E82E2;}
</style>
<g>
	<g id="check-circle-outline">
		<path class="st0" d="M459,255c0,112.2-91.8,204-204,204S51,367.2,51,255S142.8,51,255,51c20.4,0,38.3,2.5,56.1,7.7l40.8-40.8
			C321.3,7.7,288.2,0,255,0C114.8,0,0,114.8,0,255s114.8,255,255,255s255-114.8,255-255H459z"/>
		<polygon class="st1" points="484.5,102 229.5,357 114.8,242.3 150.5,206.5 229.5,285.6 448.8,66.3 		"/>
	</g>
</g>
</svg>
